<svg width="30" height="35" viewBox="0 0 30 35" fill="none" xmlns="http://www.w3.org/2000/svg">
<path d="M23.5714 8.75C23.5714 13.583 19.7344 17.5 14.9397 17.5C10.2656 17.5 6.3683 13.583 6.3683 8.75C6.3683 3.91768 10.2656 0 14.9397 0C19.7344 0 23.5714 3.91768 23.5714 8.75ZM19.2254 24.7461C17.4375 25.2314 16.0112 26.9473 16.0112 28.9844V30.625C16.0112 30.9121 16.1853 31.1924 16.3862 31.3975L17.4576 32.4912C17.8728 32.9219 18.5558 32.9219 18.971 32.4912C19.3929 32.0674 19.3929 31.3701 18.971 30.9463L18.154 30.1738V28.9844C18.154 27.7744 19.1719 26.7969 20.2969 26.7969C21.5424 26.7969 22.5 27.7744 22.5 28.9844V30.1738L21.7433 30.9463C21.3214 31.3701 21.3214 32.0674 21.7433 32.4912C22.1585 32.9219 22.8415 32.9219 23.2567 32.4912L24.3281 31.3975C24.529 31.1924 24.6429 30.9121 24.6429 30.625V28.9844C24.6429 26.9473 23.2768 25.2314 21.4286 24.7461V21.1094C26.3504 22.333 30 26.8037 30 32.2656V32.8125C30 34.0225 29.0424 35 27.8571 35H2.14286C0.959598 35 0 34.0225 0 32.8125V32.2656C0 26.8652 3.65156 22.333 8.57143 21.1094V25.3135C7.02455 25.7852 5.89286 27.248 5.89286 28.9844C5.89286 31.0967 7.57366 32.8125 9.64286 32.8125C11.7121 32.8125 13.3929 31.0967 13.3929 28.9844C13.3929 27.248 12.2612 25.7852 10.7143 25.3135V20.7949C10.8951 20.7881 11.0692 20.7812 11.25 20.7812H18.75C18.9308 20.7812 19.1049 20.7881 19.2857 20.7949L19.2254 24.7461ZM11.1897 28.9844C11.1897 29.8936 10.5335 30.625 9.58259 30.625C8.75223 30.625 7.97545 29.8936 7.97545 28.9844C7.97545 28.0752 8.75223 27.3438 9.58259 27.3438C10.5335 27.3438 11.1897 28.0752 11.1897 28.9844Z" fill="#00856F"/>
</svg>
