<?xml version="1.0" encoding="utf-8"?>
<!-- Generator: Adobe Illustrator 16.0.0, SVG Export Plug-In . SVG Version: 6.00 Build 0)  -->
<!DOCTYPE svg PUBLIC "-//W3C//DTD SVG 1.1//EN" "http://www.w3.org/Graphics/SVG/1.1/DTD/svg11.dtd">
<svg version="1.1" id="Layer_1" xmlns="http://www.w3.org/2000/svg" xmlns:xlink="http://www.w3.org/1999/xlink" x="0px"
     y="0px"
     width="60px" height="60px" viewBox="0 0 60 60" style="enable-background:new 0 0 60 60; "
     xml:space="preserve">
<path d="M55.731,13.04c-2.871-4.61-7.495-7.254-12.684-7.254l-0.175,0c-5.425,0.061-9.777,2.747-12.957,7.987
	c-3.199-5.15-7.94-8.085-13.115-8.085c-2.706,0-5.425,0.85-7.865,2.456c-7.522,4.956-9.523,15.117-4.655,23.638
	c6.128,10.723,15.277,17.751,24.1,24.015c0.48,0.361,0.975,0.734,1.619,0.734c0.697-0.001,1.219-0.426,1.838-0.934l0.254-0.187
	c3.258-2.398,6.625-4.879,9.765-7.591c5.131-4.43,10.885-9.992,14.655-17.661C59.24,24.604,58.949,18.205,55.731,13.04z
	 M40.51,46.261c-3.078,2.659-6.414,5.115-9.639,7.49l-0.294,0.219c-0.156,0.126-0.415,0.337-0.58,0.45
	c-0.129-0.085-0.31-0.221-0.399-0.287c-8.145-5.782-16.545-12.205-22.44-21.568h18.946c0.366,0,0.704-0.193,0.889-0.509l0.386-0.659
	l1.479,5.653c0.119,0.453,0.528,0.77,0.997,0.77h0c0.469,0,0.878-0.316,0.996-0.771l2.71-10.395l1.881,15.376
	c0.061,0.506,0.482,0.891,0.991,0.905c0.011,0.001,0.021,0.001,0.032,0.001c0.494,0,0.922-0.354,1.012-0.845l1.683-9.178h13.446
	C49.126,38.429,44.616,42.715,40.51,46.261z M54.663,29.25c-0.269,0.546-0.552,1.078-0.841,1.604H38.301
	c-0.497,0-0.924,0.356-1.014,0.845l-0.621,3.385l-1.717-14.045c-0.061-0.491-0.461-0.871-0.955-0.903
	c-0.489-0.033-0.94,0.29-1.064,0.769l-3.078,11.809l-1.109-4.241c-0.105-0.403-0.443-0.703-0.855-0.76
	c-0.421-0.055-0.819,0.142-1.029,0.5l-1.344,2.293H5.939c-4.142-7.509-2.398-16.339,4.13-20.64c2.132-1.404,4.397-2.117,6.731-2.117
	c4.648,0,8.931,2.827,11.749,7.755c0.11,0.194,1.349,2.039,1.349,2.039l0.971-1.66c3.304-5.522,6.876-7.977,12.027-8.035
	l0.151-0.001c4.462,0,8.448,2.29,10.936,6.283C56.821,18.686,57.075,24.338,54.663,29.25z " fill="#FFFFFF"/>
</svg>
